<svg width="187" height="26" viewBox="0 0 187 26" fill="none" xmlns="http://www.w3.org/2000/svg">
<g clip-path="url(#clip0_378_47)">
<path d="M14.8491 0L23.1386 17.8387L24.0002 4.23227L14.8491 0Z" fill="url(#paint0_linear_378_47)"/>
<path d="M16.9875 18.7449H7.01271L5.73926 21.8307L12.0001 25.4005L18.261 21.8307L16.9875 18.7449Z" fill="url(#paint1_linear_378_47)"/>
<path d="M8.72168 14.7425H15.2812L11.9997 6.7688L8.72168 14.7425Z" fill="url(#paint2_linear_378_47)"/>
<path d="M9.15103 0L0 4.23227L0.861556 17.8387L9.15103 0Z" fill="url(#paint3_linear_378_47)"/>
<path d="M40.2078 5.96934H43.5038L47.5358 17.8894H44.8318L44.0318 15.4574H39.6638L38.8638 17.8894H36.1758L40.2078 5.96934ZM43.3438 13.2974L41.8558 8.70537L40.3518 13.2974H43.3438ZM50.0545 5.96934H51.9585L57.3346 13.0574V5.96934H59.8146V17.8894H57.8946L52.5345 10.6414V17.8894H50.0545V5.96934ZM68.9375 18.0814C67.8069 18.0814 66.7775 17.8147 65.8495 17.2814C64.9215 16.748 64.1909 16.012 63.6575 15.0734C63.1242 14.1347 62.8575 13.084 62.8575 11.9214C62.8575 10.7587 63.1189 9.70797 63.6415 8.76937C64.1642 7.83068 64.8789 7.10001 65.7855 6.57734C66.7029 6.04401 67.7322 5.77734 68.8735 5.77734C69.7055 5.77734 70.4682 5.92134 71.1615 6.20934C71.8655 6.48668 72.4575 6.86534 72.9375 7.34534C73.4176 7.82534 73.7642 8.36397 73.9775 8.96137L71.7856 10.0174C71.5722 9.41997 71.2095 8.93997 70.6976 8.57737C70.1856 8.20397 69.5775 8.01737 68.8735 8.01737C68.1802 8.01737 67.5615 8.18267 67.0175 8.51337C66.4842 8.83337 66.0682 9.29197 65.7695 9.88937C65.4815 10.476 65.3375 11.1534 65.3375 11.9214C65.3375 12.6894 65.4869 13.372 65.7855 13.9694C66.0949 14.556 66.5215 15.0147 67.0655 15.3454C67.6202 15.676 68.2442 15.8414 68.9375 15.8414C69.4922 15.8414 70.0042 15.7347 70.4736 15.5214C70.9535 15.308 71.3375 15.004 71.6255 14.6094C71.9135 14.204 72.0575 13.7347 72.0575 13.2014V13.1694H68.8735V11.0894H74.5376V12.3534C74.5376 13.5907 74.2709 14.6414 73.7376 15.5054C73.2042 16.3694 72.5109 17.0147 71.6576 17.4414C70.8042 17.868 69.8975 18.0814 68.9375 18.0814ZM82.0849 18.0814C81.1569 18.0814 80.3196 17.884 79.5729 17.4894C78.8369 17.0947 78.2556 16.5507 77.8289 15.8574C77.4129 15.164 77.2049 14.3854 77.2049 13.5214V5.96934H79.6849V13.3614C79.6849 14.076 79.9089 14.668 80.3569 15.1374C80.8156 15.6067 81.3916 15.8414 82.0849 15.8414C82.7783 15.8414 83.3489 15.6067 83.7969 15.1374C84.2556 14.668 84.4849 14.076 84.4849 13.3614V5.96934H86.9649V13.5214C86.9649 14.3854 86.7516 15.164 86.3249 15.8574C85.9089 16.5507 85.3276 17.0947 84.5809 17.4894C83.8449 17.884 83.0129 18.0814 82.0849 18.0814ZM90.207 5.96934H92.687V15.7294H97.727V17.8894H90.207V5.96934ZM103.389 5.96934H106.685L110.717 17.8894H108.013L107.213 15.4574H102.845L102.045 17.8894H99.3571L103.389 5.96934ZM106.525 13.2974L105.037 8.70537L103.533 13.2974H106.525ZM113.236 5.96934H117.796C119.065 5.96934 120.084 6.30001 120.852 6.96134C121.631 7.62268 122.02 8.56137 122.02 9.77737C122.02 10.5774 121.839 11.2654 121.476 11.8414C121.113 12.4067 120.607 12.8387 119.956 13.1374L122.676 17.8894H119.892L117.476 13.5694H115.716V17.8894H113.236V5.96934ZM117.812 11.4094C118.335 11.4094 118.751 11.26 119.06 10.9614C119.38 10.6627 119.54 10.268 119.54 9.77737C119.54 9.28667 119.38 8.89197 119.06 8.59337C118.751 8.28397 118.335 8.12937 117.812 8.12937H115.716V11.4094H117.812ZM129.343 5.96934H131.823V17.8894H129.343V5.96934ZM140.881 18.0814C139.75 18.0814 138.726 17.8147 137.809 17.2814C136.891 16.748 136.171 16.012 135.649 15.0734C135.126 14.1347 134.865 13.084 134.865 11.9214C134.865 10.7587 135.126 9.70797 135.649 8.76937C136.171 7.83068 136.886 7.10001 137.793 6.57734C138.71 6.04401 139.739 5.77734 140.881 5.77734C141.713 5.77734 142.475 5.92134 143.169 6.20934C143.873 6.48668 144.465 6.86534 144.945 7.34534C145.425 7.82534 145.771 8.36397 145.985 8.96137L143.793 10.0174C143.579 9.41997 143.217 8.93997 142.705 8.57737C142.193 8.20397 141.585 8.01737 140.881 8.01737C140.187 8.01737 139.569 8.18267 139.025 8.51337C138.491 8.83337 138.075 9.29197 137.777 9.88937C137.489 10.476 137.345 11.1534 137.345 11.9214C137.345 12.6894 137.489 13.372 137.777 13.9694C138.075 14.556 138.491 15.0147 139.025 15.3454C139.569 15.676 140.187 15.8414 140.881 15.8414C141.585 15.8414 142.193 15.66 142.705 15.2974C143.217 14.924 143.579 14.4387 143.793 13.8414L145.985 14.8974C145.771 15.4947 145.425 16.0334 144.945 16.5134C144.465 16.9934 143.873 17.3774 143.169 17.6654C142.475 17.9427 141.713 18.0814 140.881 18.0814ZM154.824 18.0814C153.64 18.0814 152.563 17.8147 151.592 17.2814C150.632 16.7374 149.875 15.996 149.32 15.0574C148.776 14.1187 148.504 13.0734 148.504 11.9214C148.504 10.7694 148.776 9.72397 149.32 8.78537C149.875 7.84668 150.632 7.11068 151.592 6.57734C152.563 6.04401 153.64 5.77734 154.824 5.77734C156.008 5.77734 157.08 6.04401 158.04 6.57734C159.011 7.11068 159.768 7.84668 160.312 8.78537C160.867 9.72397 161.144 10.7694 161.144 11.9214C161.144 13.0734 160.867 14.1187 160.312 15.0574C159.768 15.996 159.011 16.7374 158.04 17.2814C157.08 17.8147 156.008 18.0814 154.824 18.0814ZM150.984 11.9214C150.984 12.6787 151.149 13.356 151.48 13.9534C151.821 14.54 152.285 15.004 152.872 15.3454C153.459 15.676 154.109 15.8414 154.824 15.8414C155.539 15.8414 156.189 15.676 156.776 15.3454C157.363 15.004 157.821 14.54 158.152 13.9534C158.493 13.356 158.664 12.6787 158.664 11.9214C158.664 11.164 158.493 10.492 158.152 9.90537C157.821 9.30797 157.363 8.84397 156.776 8.51337C156.2 8.18267 155.549 8.01737 154.824 8.01737C154.099 8.01737 153.443 8.18267 152.856 8.51337C152.28 8.84397 151.821 9.30797 151.48 9.90537C151.149 10.492 150.984 11.164 150.984 11.9214ZM164.183 5.96934H166.087L171.463 13.0574V5.96934H173.943V17.8894H172.023L166.663 10.6414V17.8894H164.183V5.96934ZM181.674 18.0814C180.671 18.0814 179.818 17.8947 179.114 17.5214C178.41 17.148 177.871 16.684 177.498 16.1294C177.125 15.564 176.895 14.9934 176.81 14.4174L179.162 13.8254C179.439 15.116 180.293 15.7614 181.722 15.7614C182.223 15.7614 182.618 15.6494 182.906 15.4254C183.205 15.2014 183.354 14.908 183.354 14.5454C183.354 14.236 183.242 13.9747 183.018 13.7614C182.805 13.548 182.506 13.404 182.122 13.3294L180.458 13.0254C179.455 12.844 178.666 12.4334 178.09 11.7934C177.525 11.1534 177.242 10.348 177.242 9.37737C177.242 8.72667 177.434 8.12397 177.818 7.56934C178.213 7.01468 178.725 6.57734 179.354 6.25734C179.994 5.93734 180.666 5.77734 181.37 5.77734C182.319 5.77734 183.109 5.93734 183.738 6.25734C184.378 6.56668 184.863 6.95601 185.194 7.42534C185.525 7.88401 185.738 8.35867 185.834 8.84937L183.498 9.55337C183.274 8.99867 183.007 8.61997 182.698 8.41737C182.389 8.20397 181.946 8.09737 181.37 8.09737C181.071 8.09737 180.805 8.16137 180.57 8.28937C180.346 8.40667 180.17 8.56137 180.042 8.75337C179.914 8.93467 179.85 9.12137 179.85 9.31337C179.85 9.62267 179.946 9.87867 180.138 10.0814C180.33 10.284 180.613 10.4227 180.986 10.4974L182.634 10.8334C183.711 11.0574 184.543 11.4894 185.13 12.1294C185.717 12.7694 186.01 13.532 186.01 14.4174C186.01 15.0254 185.834 15.612 185.482 16.1774C185.141 16.7427 184.639 17.2014 183.978 17.5534C183.327 17.9054 182.559 18.0814 181.674 18.0814Z" fill="url(#paint4_linear_378_47)"/>
</g>
<defs>
<linearGradient id="paint0_linear_378_47" x1="14.8491" y1="8.91937" x2="24.0002" y2="8.91937" gradientUnits="userSpaceOnUse">
<stop stop-color="#E53935"/>
<stop offset="1" stop-color="#E35D5B"/>
</linearGradient>
<linearGradient id="paint1_linear_378_47" x1="5.73926" y1="22.0727" x2="18.261" y2="22.0727" gradientUnits="userSpaceOnUse">
<stop stop-color="#E53935"/>
<stop offset="1" stop-color="#E35D5B"/>
</linearGradient>
<linearGradient id="paint2_linear_378_47" x1="8.72168" y1="10.7557" x2="15.2812" y2="10.7557" gradientUnits="userSpaceOnUse">
<stop stop-color="#E53935"/>
<stop offset="1" stop-color="#E35D5B"/>
</linearGradient>
<linearGradient id="paint3_linear_378_47" x1="0" y1="8.91937" x2="9.15103" y2="8.91937" gradientUnits="userSpaceOnUse">
<stop stop-color="#E53935"/>
<stop offset="1" stop-color="#E35D5B"/>
</linearGradient>
<linearGradient id="paint4_linear_378_47" x1="112" y1="18" x2="112" y2="0.999974" gradientUnits="userSpaceOnUse">
<stop stop-color="#ECE9E6"/>
<stop offset="1" stop-color="white"/>
</linearGradient>
<clipPath id="clip0_378_47">
<rect width="187" height="26" fill="white"/>
</clipPath>
</defs>
</svg>
