<svg width="126" height="26" viewBox="0 0 126 26" fill="none" xmlns="http://www.w3.org/2000/svg">
<path d="M12 0L0 4.27927L1.83029 20.1461L12 25.7787L22.1697 20.1461L24 4.27927L12 0Z" fill="url(#paint0_linear_206_211)"/>
<path d="M12 2.8486L4.49835 19.6692H7.29534L8.8034 15.9055H15.1707L16.6788 19.6692H19.4758L12 2.8486ZM14.1912 13.5854H9.80877L12 8.31369L14.1912 13.5854Z" fill="white"/>
<path d="M37.056 7.96937H38.96L44.336 15.0574V7.96937H46.816V19.8894H44.896L39.536 12.6414V19.8894H37.056V7.96937ZM55.939 20.0814C54.8083 20.0814 53.779 19.8147 52.851 19.2814C51.923 18.748 51.1923 18.012 50.659 17.0734C50.1257 16.1347 49.859 15.084 49.859 13.9214C49.859 12.7587 50.1203 11.708 50.643 10.7694C51.1657 9.83071 51.8803 9.10004 52.787 8.57737C53.7043 8.04404 54.7337 7.77737 55.875 7.77737C56.707 7.77737 57.4697 7.92137 58.163 8.20937C58.867 8.48671 59.459 8.86537 59.939 9.34537C60.419 9.82537 60.7657 10.364 60.979 10.9614L58.787 12.0174C58.5737 11.42 58.211 10.94 57.699 10.5774C57.187 10.204 56.579 10.0174 55.875 10.0174C55.1817 10.0174 54.563 10.1827 54.019 10.5134C53.4857 10.8334 53.0697 11.292 52.771 11.8894C52.483 12.476 52.339 13.1534 52.339 13.9214C52.339 14.6894 52.4883 15.372 52.787 15.9694C53.0963 16.556 53.523 17.0147 54.067 17.3454C54.6217 17.676 55.2457 17.8414 55.939 17.8414C56.4937 17.8414 57.0057 17.7347 57.475 17.5214C57.955 17.308 58.339 17.004 58.627 16.6094C58.915 16.204 59.059 15.7347 59.059 15.2014V15.1694H55.875V13.0894H61.539V14.3534C61.539 15.5907 61.2723 16.6414 60.739 17.5054C60.2057 18.3694 59.5123 19.0147 58.659 19.4414C57.8057 19.868 56.899 20.0814 55.939 20.0814ZM68.5054 7.96937H70.9854V19.8894H68.5054V7.96937ZM80.0431 20.0814C78.9125 20.0814 77.8885 19.8147 76.9711 19.2814C76.0538 18.748 75.3338 18.012 74.8111 17.0734C74.2885 16.1347 74.0271 15.084 74.0271 13.9214C74.0271 12.7587 74.2885 11.708 74.8111 10.7694C75.3338 9.83071 76.0485 9.10004 76.9551 8.57737C77.8725 8.04404 78.9018 7.77737 80.0431 7.77737C80.8751 7.77737 81.6378 7.92137 82.3311 8.20937C83.0351 8.48671 83.6271 8.86537 84.1071 9.34537C84.5871 9.82537 84.9338 10.364 85.1471 10.9614L82.9551 12.0174C82.7418 11.42 82.3791 10.94 81.8671 10.5774C81.3551 10.204 80.7471 10.0174 80.0431 10.0174C79.3498 10.0174 78.7311 10.1827 78.1871 10.5134C77.6538 10.8334 77.2378 11.292 76.9391 11.8894C76.6511 12.476 76.5071 13.1534 76.5071 13.9214C76.5071 14.6894 76.6511 15.372 76.9391 15.9694C77.2378 16.556 77.6538 17.0147 78.1871 17.3454C78.7311 17.676 79.3498 17.8414 80.0431 17.8414C80.7471 17.8414 81.3551 17.66 81.8671 17.2974C82.3791 16.924 82.7418 16.4387 82.9551 15.8414L85.1471 16.8974C84.9338 17.4947 84.5871 18.0334 84.1071 18.5134C83.6271 18.9934 83.0351 19.3774 82.3311 19.6654C81.6378 19.9427 80.8751 20.0814 80.0431 20.0814ZM93.9865 20.0814C92.8025 20.0814 91.7252 19.8147 90.7545 19.2814C89.7945 18.7374 89.0372 17.996 88.4825 17.0574C87.9385 16.1187 87.6665 15.0734 87.6665 13.9214C87.6665 12.7694 87.9385 11.724 88.4825 10.7854C89.0372 9.84671 89.7945 9.11071 90.7545 8.57737C91.7252 8.04404 92.8025 7.77737 93.9865 7.77737C95.1705 7.77737 96.2425 8.04404 97.2025 8.57737C98.1732 9.11071 98.9305 9.84671 99.4745 10.7854C100.029 11.724 100.307 12.7694 100.307 13.9214C100.307 15.0734 100.029 16.1187 99.4745 17.0574C98.9305 17.996 98.1732 18.7374 97.2025 19.2814C96.2425 19.8147 95.1705 20.0814 93.9865 20.0814ZM90.1465 13.9214C90.1465 14.6787 90.3118 15.356 90.6425 15.9534C90.9838 16.54 91.4478 17.004 92.0345 17.3454C92.6212 17.676 93.2718 17.8414 93.9865 17.8414C94.7012 17.8414 95.3518 17.676 95.9385 17.3454C96.5252 17.004 96.9838 16.54 97.3145 15.9534C97.6558 15.356 97.8265 14.6787 97.8265 13.9214C97.8265 13.164 97.6558 12.492 97.3145 11.9054C96.9838 11.308 96.5252 10.844 95.9385 10.5134C95.3625 10.1827 94.7118 10.0174 93.9865 10.0174C93.2612 10.0174 92.6052 10.1827 92.0185 10.5134C91.4425 10.844 90.9838 11.308 90.6425 11.9054C90.3118 12.492 90.1465 13.164 90.1465 13.9214ZM103.345 7.96937H105.249L110.625 15.0574V7.96937H113.105V19.8894H111.185L105.825 12.6414V19.8894H103.345V7.96937ZM120.836 20.0814C119.834 20.0814 118.98 19.8947 118.276 19.5214C117.572 19.148 117.034 18.684 116.66 18.1294C116.287 17.564 116.058 16.9934 115.972 16.4174L118.324 15.8254C118.602 17.116 119.455 17.7614 120.884 17.7614C121.386 17.7614 121.78 17.6494 122.068 17.4254C122.367 17.2014 122.516 16.908 122.516 16.5454C122.516 16.236 122.404 15.9747 122.18 15.7614C121.967 15.548 121.668 15.404 121.284 15.3294L119.62 15.0254C118.618 14.844 117.828 14.4334 117.252 13.7934C116.687 13.1534 116.404 12.348 116.404 11.3774C116.404 10.7267 116.596 10.124 116.98 9.56937C117.375 9.01471 117.887 8.57737 118.516 8.25737C119.156 7.93737 119.828 7.77737 120.532 7.77737C121.482 7.77737 122.271 7.93737 122.9 8.25737C123.54 8.56671 124.026 8.95604 124.356 9.42537C124.687 9.88404 124.9 10.3587 124.996 10.8494L122.66 11.5534C122.436 10.9987 122.17 10.62 121.86 10.4174C121.551 10.204 121.108 10.0974 120.532 10.0974C120.234 10.0974 119.967 10.1614 119.732 10.2894C119.508 10.4067 119.332 10.5614 119.204 10.7534C119.076 10.9347 119.012 11.1214 119.012 11.3134C119.012 11.6227 119.108 11.8787 119.3 12.0814C119.492 12.284 119.775 12.4227 120.148 12.4974L121.796 12.8334C122.874 13.0574 123.706 13.4894 124.292 14.1294C124.879 14.7694 125.172 15.532 125.172 16.4174C125.172 17.0254 124.996 17.612 124.644 18.1774C124.303 18.7427 123.802 19.2014 123.14 19.5534C122.49 19.9054 121.722 20.0814 120.836 20.0814Z" fill="#F8E8E8"/>
<defs>
<linearGradient id="paint0_linear_206_211" x1="0" y1="12.8894" x2="24" y2="12.8894" gradientUnits="userSpaceOnUse">
<stop stop-color="#E53935"/>
<stop offset="1" stop-color="#E35D5B"/>
</linearGradient>
</defs>
</svg>
