<svg width="187" height="26" viewBox="0 0 187 26" fill="none" xmlns="http://www.w3.org/2000/svg">
<path d="M12 0L0 4.27927L1.83029 20.1461L12 25.7787L22.1697 20.1461L24 4.27927L12 0Z" fill="url(#paint0_linear_206_211)"/>
<path d="M12 2.8486L4.49835 19.6692H7.29534L8.8034 15.9055H15.1707L16.6788 19.6692H19.4758L12 2.8486ZM14.1912 13.5854H9.80877L12 8.31369L14.1912 13.5854Z" fill="white"/>
<path d="M40.208 7.96937H43.504L47.536 19.8894H44.832L44.032 17.4574H39.664L38.864 19.8894H36.176L40.208 7.96937ZM43.344 15.2974L41.856 10.7054L40.352 15.2974H43.344ZM50.0547 7.96937H51.9587L57.3348 15.0574V7.96937H59.8148V19.8894H57.8948L52.5347 12.6414V19.8894H50.0547V7.96937ZM68.9377 20.0814C67.8071 20.0814 66.7777 19.8147 65.8497 19.2814C64.9217 18.748 64.1911 18.012 63.6577 17.0734C63.1244 16.1347 62.8577 15.084 62.8577 13.9214C62.8577 12.7587 63.1191 11.708 63.6417 10.7694C64.1644 9.83071 64.8791 9.10004 65.7857 8.57737C66.7031 8.04404 67.7324 7.77737 68.8737 7.77737C69.7057 7.77737 70.4684 7.92137 71.1617 8.20937C71.8657 8.48671 72.4577 8.86537 72.9377 9.34537C73.4178 9.82537 73.7644 10.364 73.9777 10.9614L71.7858 12.0174C71.5724 11.42 71.2097 10.94 70.6978 10.5774C70.1858 10.204 69.5777 10.0174 68.8737 10.0174C68.1804 10.0174 67.5617 10.1827 67.0177 10.5134C66.4844 10.8334 66.0684 11.292 65.7697 11.8894C65.4817 12.476 65.3377 13.1534 65.3377 13.9214C65.3377 14.6894 65.4871 15.372 65.7857 15.9694C66.0951 16.556 66.5217 17.0147 67.0657 17.3454C67.6204 17.676 68.2444 17.8414 68.9377 17.8414C69.4924 17.8414 70.0044 17.7347 70.4738 17.5214C70.9537 17.308 71.3377 17.004 71.6257 16.6094C71.9137 16.204 72.0577 15.7347 72.0577 15.2014V15.1694H68.8737V13.0894H74.5378V14.3534C74.5378 15.5907 74.2711 16.6414 73.7378 17.5054C73.2044 18.3694 72.5111 19.0147 71.6578 19.4414C70.8044 19.868 69.8977 20.0814 68.9377 20.0814ZM82.0851 20.0814C81.1571 20.0814 80.3198 19.884 79.5731 19.4894C78.8371 19.0947 78.2558 18.5507 77.8291 17.8574C77.4131 17.164 77.2051 16.3854 77.2051 15.5214V7.96937H79.6851V15.3614C79.6851 16.076 79.9091 16.668 80.3571 17.1374C80.8158 17.6067 81.3918 17.8414 82.0851 17.8414C82.7785 17.8414 83.3491 17.6067 83.7971 17.1374C84.2558 16.668 84.4851 16.076 84.4851 15.3614V7.96937H86.9651V15.5214C86.9651 16.3854 86.7518 17.164 86.3251 17.8574C85.9091 18.5507 85.3278 19.0947 84.5811 19.4894C83.8451 19.884 83.0131 20.0814 82.0851 20.0814ZM90.2072 7.96937H92.6872V17.7294H97.7272V19.8894H90.2072V7.96937ZM103.389 7.96937H106.685L110.717 19.8894H108.013L107.213 17.4574H102.845L102.045 19.8894H99.3573L103.389 7.96937ZM106.525 15.2974L105.037 10.7054L103.533 15.2974H106.525ZM113.236 7.96937H117.796C119.065 7.96937 120.084 8.30004 120.852 8.96137C121.631 9.62271 122.02 10.5614 122.02 11.7774C122.02 12.5774 121.839 13.2654 121.476 13.8414C121.113 14.4067 120.607 14.8387 119.956 15.1374L122.676 19.8894H119.892L117.476 15.5694H115.716V19.8894H113.236V7.96937ZM117.812 13.4094C118.335 13.4094 118.751 13.26 119.06 12.9614C119.38 12.6627 119.54 12.268 119.54 11.7774C119.54 11.2867 119.38 10.892 119.06 10.5934C118.751 10.284 118.335 10.1294 117.812 10.1294H115.716V13.4094H117.812ZM129.343 7.96937H131.823V19.8894H129.343V7.96937ZM140.881 20.0814C139.75 20.0814 138.726 19.8147 137.809 19.2814C136.891 18.748 136.171 18.012 135.649 17.0734C135.126 16.1347 134.865 15.084 134.865 13.9214C134.865 12.7587 135.126 11.708 135.649 10.7694C136.171 9.83071 136.886 9.10004 137.793 8.57737C138.71 8.04404 139.739 7.77737 140.881 7.77737C141.713 7.77737 142.475 7.92137 143.169 8.20937C143.873 8.48671 144.465 8.86537 144.945 9.34537C145.425 9.82537 145.771 10.364 145.985 10.9614L143.793 12.0174C143.579 11.42 143.217 10.94 142.705 10.5774C142.193 10.204 141.585 10.0174 140.881 10.0174C140.187 10.0174 139.569 10.1827 139.025 10.5134C138.491 10.8334 138.075 11.292 137.777 11.8894C137.489 12.476 137.345 13.1534 137.345 13.9214C137.345 14.6894 137.489 15.372 137.777 15.9694C138.075 16.556 138.491 17.0147 139.025 17.3454C139.569 17.676 140.187 17.8414 140.881 17.8414C141.585 17.8414 142.193 17.66 142.705 17.2974C143.217 16.924 143.579 16.4387 143.793 15.8414L145.985 16.8974C145.771 17.4947 145.425 18.0334 144.945 18.5134C144.465 18.9934 143.873 19.3774 143.169 19.6654C142.475 19.9427 141.713 20.0814 140.881 20.0814ZM154.824 20.0814C153.64 20.0814 152.563 19.8147 151.592 19.2814C150.632 18.7374 149.875 17.996 149.32 17.0574C148.776 16.1187 148.504 15.0734 148.504 13.9214C148.504 12.7694 148.776 11.724 149.32 10.7854C149.875 9.84671 150.632 9.11071 151.592 8.57737C152.563 8.04404 153.64 7.77737 154.824 7.77737C156.008 7.77737 157.08 8.04404 158.04 8.57737C159.011 9.11071 159.768 9.84671 160.312 10.7854C160.867 11.724 161.144 12.7694 161.144 13.9214C161.144 15.0734 160.867 16.1187 160.312 17.0574C159.768 17.996 159.011 18.7374 158.04 19.2814C157.08 19.8147 156.008 20.0814 154.824 20.0814ZM150.984 13.9214C150.984 14.6787 151.149 15.356 151.48 15.9534C151.821 16.54 152.285 17.004 152.872 17.3454C153.459 17.676 154.109 17.8414 154.824 17.8414C155.539 17.8414 156.189 17.676 156.776 17.3454C157.363 17.004 157.821 16.54 158.152 15.9534C158.493 15.356 158.664 14.6787 158.664 13.9214C158.664 13.164 158.493 12.492 158.152 11.9054C157.821 11.308 157.363 10.844 156.776 10.5134C156.2 10.1827 155.549 10.0174 154.824 10.0174C154.099 10.0174 153.443 10.1827 152.856 10.5134C152.28 10.844 151.821 11.308 151.48 11.9054C151.149 12.492 150.984 13.164 150.984 13.9214ZM164.183 7.96937H166.087L171.463 15.0574V7.96937H173.943V19.8894H172.023L166.663 12.6414V19.8894H164.183V7.96937ZM181.674 20.0814C180.671 20.0814 179.818 19.8947 179.114 19.5214C178.41 19.148 177.871 18.684 177.498 18.1294C177.125 17.564 176.895 16.9934 176.81 16.4174L179.162 15.8254C179.439 17.116 180.293 17.7614 181.722 17.7614C182.223 17.7614 182.618 17.6494 182.906 17.4254C183.205 17.2014 183.354 16.908 183.354 16.5454C183.354 16.236 183.242 15.9747 183.018 15.7614C182.805 15.548 182.506 15.404 182.122 15.3294L180.458 15.0254C179.455 14.844 178.666 14.4334 178.09 13.7934C177.525 13.1534 177.242 12.348 177.242 11.3774C177.242 10.7267 177.434 10.124 177.818 9.56937C178.213 9.01471 178.725 8.57737 179.354 8.25737C179.994 7.93737 180.666 7.77737 181.37 7.77737C182.319 7.77737 183.109 7.93737 183.738 8.25737C184.378 8.56671 184.863 8.95604 185.194 9.42537C185.525 9.88404 185.738 10.3587 185.834 10.8494L183.498 11.5534C183.274 10.9987 183.007 10.62 182.698 10.4174C182.389 10.204 181.946 10.0974 181.37 10.0974C181.071 10.0974 180.805 10.1614 180.57 10.2894C180.346 10.4067 180.17 10.5614 180.042 10.7534C179.914 10.9347 179.85 11.1214 179.85 11.3134C179.85 11.6227 179.946 11.8787 180.138 12.0814C180.33 12.284 180.613 12.4227 180.986 12.4974L182.634 12.8334C183.711 13.0574 184.543 13.4894 185.13 14.1294C185.717 14.7694 186.01 15.532 186.01 16.4174C186.01 17.0254 185.834 17.612 185.482 18.1774C185.141 18.7427 184.639 19.2014 183.978 19.5534C183.327 19.9054 182.559 20.0814 181.674 20.0814Z" fill="#F8E8E8"/>
<defs>
<linearGradient id="paint0_linear_206_211" x1="0" y1="12.8894" x2="24" y2="12.8894" gradientUnits="userSpaceOnUse">
<stop stop-color="#E53935"/>
<stop offset="1" stop-color="#E35D5B"/>
</linearGradient>
</defs>
</svg>
